<?xml version="1.0" encoding="UTF-8" ?>
<!DOCTYPE svg PUBLIC "-//W3C//DTD SVG 1.1//EN" "http://www.w3.org/Graphics/SVG/1.1/DTD/svg11.dtd">
<svg width="720pt" height="380pt" viewBox="0 0 720 380" version="1.1" xmlns="http://www.w3.org/2000/svg">
<path fill="#fefefe" d=" M 0.00 0.00 L 720.00 0.00 L 720.00 380.00 L 0.00 380.00 L 0.00 0.00 Z" />
<path fill="#050505" d=" M 20.27 22.46 C 57.67 22.71 95.08 22.13 132.48 22.54 C 132.70 28.23 132.58 33.93 132.57 39.62 C 133.06 39.61 134.04 39.59 134.53 39.58 C 134.63 40.56 134.72 41.55 134.82 42.53 C 134.27 42.57 133.16 42.65 132.61 42.69 C 132.56 50.98 132.67 59.27 132.57 67.57 C 131.60 67.50 130.63 67.44 129.67 67.38 C 129.70 53.37 129.65 39.36 129.71 25.35 C 114.80 25.28 99.89 25.36 84.99 25.31 C 83.29 25.32 81.58 25.27 79.92 25.62 C 79.80 26.37 79.56 27.87 79.44 28.63 L 80.35 28.32 C 80.24 32.41 80.23 36.51 80.36 40.60 L 79.67 40.41 C 79.68 41.16 79.69 42.66 79.70 43.41 L 80.90 43.71 C 80.50 44.47 79.72 45.99 79.32 46.75 L 80.35 46.19 C 80.26 48.99 80.26 51.80 80.33 54.60 L 78.94 54.67 C 81.44 55.86 79.91 58.71 79.54 60.59 L 80.34 60.40 C 80.31 62.11 80.30 63.83 80.31 65.55 L 78.75 65.98 L 80.34 66.51 C 80.34 67.25 80.33 68.75 80.33 69.49 L 78.75 70.02 L 80.34 70.46 C 80.24 73.84 80.24 77.23 80.36 80.61 L 79.66 80.38 C 79.68 81.42 79.71 83.48 79.73 84.52 C 96.27 84.90 112.83 84.53 129.38 84.71 C 129.68 84.12 130.27 82.93 130.56 82.34 L 132.59 82.59 C 132.58 85.07 132.58 87.56 132.53 90.05 C 130.80 89.97 129.67 89.16 129.15 87.62 C 112.89 87.56 96.64 87.65 80.38 87.57 L 80.65 88.62 L 79.53 88.45 C 81.02 95.40 79.89 102.56 80.37 109.60 L 79.67 109.37 L 79.65 111.59 L 80.34 111.42 C 80.31 113.15 80.30 114.88 80.32 116.62 L 79.67 116.41 C 79.67 117.18 79.68 118.72 79.68 119.49 L 80.37 119.50 C 80.22 123.52 80.22 127.56 80.37 131.58 L 79.65 131.39 L 79.68 133.73 L 80.32 133.27 C 80.33 134.38 80.34 136.59 80.35 137.69 L 79.63 137.29 L 79.94 139.12 C 80.10 139.98 80.40 141.69 80.55 142.55 L 79.67 142.41 C 79.68 143.45 79.69 145.53 79.70 146.57 L 80.67 146.38 L 80.42 147.42 C 96.82 147.37 113.22 147.41 129.62 147.40 C 129.72 133.41 129.69 119.41 129.64 105.42 C 130.46 105.36 131.29 105.31 132.12 105.26 C 132.61 106.53 133.49 107.39 134.78 107.83 C 134.70 108.68 134.62 109.54 134.54 110.40 C 134.04 110.40 133.06 110.40 132.56 110.40 C 132.67 122.71 132.54 135.03 132.63 147.34 C 135.02 147.39 137.41 147.40 139.80 147.43 C 139.72 148.40 139.64 149.38 139.57 150.36 C 117.80 150.29 96.03 150.32 74.26 150.34 L 74.75 149.70 C 72.95 149.72 71.14 149.72 69.34 149.69 L 69.65 150.33 C 67.82 150.30 66.00 150.30 64.17 150.33 L 64.84 149.69 L 62.26 149.66 L 62.73 150.34 C 60.97 150.31 59.21 150.30 57.46 150.31 L 57.00 148.71 L 56.53 150.34 C 52.51 150.24 48.48 150.24 44.46 150.34 L 44.02 148.76 L 43.49 150.34 C 42.74 150.34 41.25 150.33 40.50 150.33 L 39.99 148.75 L 39.54 150.32 C 37.44 150.28 35.34 150.29 33.24 150.33 L 33.75 149.69 C 32.64 149.69 30.42 149.69 29.32 149.69 L 29.69 150.34 C 27.32 150.28 24.95 150.28 22.58 150.33 C 22.60 151.81 22.61 153.29 22.63 154.77 C 21.62 154.70 20.62 154.63 19.62 154.57 C 19.77 145.87 19.77 137.16 19.66 128.46 L 21.28 128.01 L 19.67 127.51 C 19.67 126.76 19.67 125.24 19.67 124.49 L 21.28 123.99 L 19.66 123.54 C 19.76 119.75 19.76 115.95 19.63 112.16 L 20.29 112.86 L 20.36 110.35 L 19.66 110.64 C 19.71 108.58 19.71 106.52 19.69 104.46 L 21.28 104.00 L 19.66 103.53 C 19.76 99.84 19.76 96.14 19.66 92.44 L 21.38 92.00 L 19.70 91.57 C 19.69 90.52 19.66 88.43 19.64 87.38 L 20.59 87.57 C 20.36 86.96 19.92 85.74 19.69 85.13 C 19.73 82.90 19.72 80.68 19.67 78.46 L 21.30 78.00 L 19.67 77.54 C 19.73 75.18 19.73 72.81 19.67 70.46 L 21.32 70.00 L 19.66 69.54 C 19.75 66.18 19.75 62.82 19.66 59.46 L 21.30 59.00 L 19.68 58.54 C 19.71 56.48 19.71 54.42 19.67 52.36 L 20.45 52.55 C 20.38 51.88 20.24 50.54 20.17 49.87 C 19.98 49.04 19.62 47.37 19.44 46.53 L 21.28 45.99 L 19.69 45.55 C 19.71 43.47 19.71 41.38 19.66 39.30 L 20.31 39.69 C 20.27 37.56 20.27 35.44 20.29 33.32 L 19.20 33.42 C 19.59 32.71 20.38 31.30 20.77 30.60 L 19.69 30.69 C 19.73 28.27 19.71 25.84 19.65 23.42 L 20.69 23.56 L 20.27 22.46 Z" />
<path fill="#8e8e8e" d=" M 156.77 22.56 C 160.74 21.35 164.91 21.88 168.99 21.81 C 224.99 21.79 280.99 21.82 336.98 21.79 C 338.48 21.81 339.95 22.18 341.41 22.52 C 306.94 23.03 272.45 22.53 237.97 22.78 C 212.64 22.67 187.31 22.74 161.98 22.72 C 160.65 22.96 158.58 22.42 157.94 24.01 C 157.31 29.15 157.98 34.34 157.70 39.50 L 157.02 39.56 C 156.66 33.90 156.86 28.23 156.77 22.56 Z" />
<path fill="#050505" d=" M 522.52 22.54 C 548.68 22.22 574.85 22.49 601.02 22.40 C 624.84 22.49 648.67 22.22 672.49 22.54 C 672.70 28.22 672.57 33.90 672.58 39.58 C 673.07 39.59 674.06 39.60 674.56 39.60 C 674.62 40.60 674.70 41.60 674.79 42.60 C 673.66 42.58 671.41 42.54 670.29 42.52 L 670.69 41.42 L 669.64 41.57 C 669.70 36.16 669.66 30.75 669.71 25.34 C 621.57 25.32 573.43 25.30 525.29 25.35 C 525.34 30.77 525.30 36.18 525.36 41.60 L 524.26 41.43 L 524.77 42.51 C 523.63 42.53 521.35 42.58 520.21 42.60 C 520.28 41.59 520.37 40.59 520.45 39.59 C 520.95 39.59 521.93 39.58 522.43 39.58 C 522.41 33.90 522.29 28.22 522.52 22.54 Z" />
<path fill="#050505" d=" M 157.94 24.01 C 158.58 22.42 160.65 22.96 161.98 22.72 C 187.31 22.74 212.64 22.67 237.97 22.78 C 272.45 22.53 306.94 23.03 341.41 22.52 L 342.48 22.47 C 342.71 28.18 342.58 33.90 342.57 39.61 C 343.06 39.61 344.04 39.60 344.53 39.59 C 344.62 40.57 344.72 41.56 344.82 42.54 C 344.27 42.58 343.16 42.65 342.61 42.69 C 342.56 50.98 342.67 59.27 342.57 67.56 C 341.60 67.50 340.63 67.44 339.67 67.38 C 339.69 53.37 339.66 39.36 339.70 25.35 C 323.23 25.31 306.76 25.31 290.29 25.35 C 290.35 45.12 290.35 64.89 290.28 84.66 C 306.65 84.72 323.02 84.61 339.39 84.71 C 339.68 84.12 340.27 82.94 340.56 82.34 L 342.59 82.58 C 342.58 85.07 342.58 87.56 342.53 90.04 C 340.78 89.98 339.66 89.17 339.17 87.60 C 322.90 87.59 306.63 87.63 290.37 87.59 C 290.30 107.52 290.28 127.46 290.38 147.40 C 306.79 147.40 323.21 147.40 339.62 147.40 C 339.72 133.40 339.69 119.41 339.64 105.42 C 340.47 105.36 341.29 105.31 342.12 105.26 C 342.60 106.54 343.48 107.40 344.78 107.83 C 344.70 108.69 344.62 109.54 344.54 110.40 C 344.04 110.40 343.06 110.40 342.56 110.40 C 342.67 122.72 342.54 135.03 342.63 147.35 C 345.02 147.39 347.41 147.40 349.80 147.42 C 349.71 148.40 349.63 149.38 349.56 150.36 C 326.52 150.30 303.48 150.30 280.44 150.36 C 280.36 149.38 280.28 148.40 280.20 147.42 C 282.59 147.40 284.97 147.39 287.36 147.35 C 287.44 127.44 287.39 107.54 287.39 87.63 C 270.95 87.67 254.50 87.41 238.07 87.75 C 237.85 88.25 237.42 89.25 237.20 89.75 C 236.34 89.70 235.49 89.64 234.64 89.58 C 234.68 87.25 234.69 84.92 234.68 82.59 C 235.30 82.56 236.53 82.50 237.14 82.47 C 237.12 85.41 240.07 84.56 242.00 84.69 C 257.15 84.61 272.29 84.76 287.43 84.61 C 287.37 64.88 287.39 45.14 287.42 25.40 C 270.81 25.28 254.19 25.27 237.58 25.40 C 237.60 39.45 237.65 53.51 237.56 67.56 C 236.84 67.51 235.39 67.42 234.66 67.37 C 234.70 53.37 234.63 39.36 234.71 25.35 C 209.90 25.31 185.10 25.31 160.29 25.35 C 160.34 30.76 160.29 36.17 160.36 41.57 L 159.32 41.41 L 159.72 42.53 C 156.55 42.58 153.38 42.62 150.21 42.59 C 150.28 41.61 150.36 40.64 150.43 39.66 C 152.63 39.67 154.83 39.74 157.02 39.56 L 157.70 39.50 C 157.98 34.34 157.31 29.15 157.94 24.01 Z" />
<path fill="#050505" d=" M 367.51 22.54 C 411.59 22.27 455.68 22.39 499.77 22.48 L 499.24 23.59 L 500.36 23.38 C 500.30 28.81 500.34 34.24 500.29 39.67 C 501.70 39.67 503.13 39.66 504.56 39.65 C 504.63 40.63 504.71 41.61 504.80 42.59 C 503.32 42.59 501.83 42.60 500.36 42.59 C 500.31 79.92 500.28 117.25 500.38 154.57 C 499.37 154.63 498.37 154.70 497.37 154.77 C 497.38 153.31 497.40 151.85 497.43 150.39 C 493.43 150.30 489.43 150.31 485.44 150.35 C 485.35 149.37 485.28 148.39 485.21 147.41 C 489.26 147.38 493.33 147.41 497.39 147.37 C 497.40 127.46 497.40 107.54 497.39 87.63 C 480.95 87.67 464.49 87.41 448.06 87.75 C 447.84 88.25 447.41 89.26 447.20 89.76 C 446.34 89.70 445.49 89.64 444.64 89.58 C 444.68 87.25 444.69 84.92 444.69 82.59 C 445.30 82.56 446.53 82.50 447.15 82.47 C 447.15 85.37 450.05 84.58 451.99 84.69 C 467.13 84.61 482.28 84.77 497.43 84.61 C 497.35 64.88 497.42 45.14 497.42 25.40 C 480.81 25.28 464.19 25.28 447.58 25.40 C 447.60 39.45 447.65 53.51 447.56 67.56 C 446.84 67.51 445.38 67.42 444.66 67.38 C 444.71 53.37 444.62 39.36 444.71 25.35 C 419.91 25.30 395.10 25.32 370.29 25.35 C 370.34 30.75 370.30 36.16 370.36 41.56 L 369.31 41.44 L 369.72 42.53 C 366.55 42.58 363.38 42.62 360.21 42.59 C 360.28 41.62 360.35 40.64 360.43 39.67 C 362.75 39.68 365.09 39.66 367.42 39.61 C 367.42 33.92 367.29 28.22 367.51 22.54 Z" />
<path fill="#050505" d=" M 690.21 42.59 C 690.28 41.61 690.35 40.63 690.43 39.65 C 693.82 39.69 697.21 39.70 700.60 39.62 L 700.55 40.51 C 701.04 40.43 702.01 40.28 702.50 40.20 C 702.74 96.13 702.54 152.06 702.60 207.99 C 702.51 244.48 702.78 280.98 702.48 317.47 C 695.80 317.69 689.12 317.61 682.45 317.55 C 682.49 316.83 682.57 315.40 682.60 314.68 C 688.30 314.66 694.01 314.70 699.71 314.65 C 699.60 283.97 699.75 253.28 699.64 222.59 C 644.83 222.60 590.02 222.62 535.21 222.58 C 535.28 221.60 535.35 220.62 535.44 219.65 C 590.20 219.70 644.96 219.68 699.72 219.66 C 699.58 160.64 699.77 101.62 699.62 42.60 C 696.48 42.60 693.35 42.61 690.21 42.59 Z" />
<path fill="#050505" d=" M 232.50 107.89 C 234.21 106.85 235.41 105.15 237.55 104.96 C 237.67 119.09 237.54 133.22 237.64 147.35 C 245.02 147.46 252.41 147.35 259.80 147.42 C 259.72 148.39 259.64 149.37 259.57 150.35 C 226.52 150.30 193.48 150.30 160.43 150.35 C 160.36 149.37 160.28 148.39 160.21 147.42 C 170.01 147.38 179.82 147.41 189.62 147.40 C 189.76 135.05 189.60 122.70 189.70 110.35 C 176.61 110.31 163.52 110.31 150.43 110.35 C 150.36 109.37 150.29 108.39 150.21 107.41 C 172.66 107.40 195.11 107.37 217.55 107.44 C 217.50 108.40 217.44 109.36 217.39 110.32 C 209.12 110.37 200.85 110.24 192.58 110.40 C 192.65 122.71 192.55 135.03 192.63 147.35 C 206.63 147.46 220.62 147.37 234.62 147.40 C 234.69 135.11 234.74 122.81 234.61 110.52 C 234.11 110.42 233.10 110.20 232.60 110.10 C 232.56 109.36 232.53 108.63 232.50 107.89 Z" />
<path fill="#050505" d=" M 444.15 107.46 C 444.40 105.59 445.97 105.22 447.56 105.01 C 447.65 119.12 447.55 133.24 447.63 147.35 C 453.35 147.45 459.07 147.36 464.79 147.42 C 464.71 148.39 464.63 149.37 464.57 150.35 C 433.19 150.30 401.81 150.30 370.44 150.35 C 370.36 149.37 370.28 148.39 370.21 147.42 C 380.01 147.38 389.82 147.41 399.62 147.40 C 399.77 135.05 399.59 122.70 399.71 110.35 C 386.62 110.31 373.53 110.31 360.43 110.35 C 360.35 109.37 360.28 108.39 360.21 107.42 C 382.66 107.40 405.11 107.37 427.55 107.44 C 427.49 108.40 427.44 109.36 427.39 110.32 C 419.12 110.37 410.85 110.24 402.58 110.40 C 402.65 122.71 402.54 135.03 402.64 147.35 C 416.63 147.46 430.63 147.36 444.62 147.40 C 444.79 135.04 444.54 122.68 444.75 110.32 L 443.87 110.55 C 443.49 110.25 442.74 109.65 442.36 109.35 L 442.61 107.38 C 442.99 107.40 443.77 107.44 444.15 107.46 Z" />
<path fill="#8e8e8e" d=" M 497.16 184.34 C 498.27 184.40 499.40 184.46 500.52 184.53 C 500.86 196.02 500.77 207.52 500.61 219.02 C 502.21 219.21 503.84 219.39 505.46 219.59 C 505.52 220.63 505.59 221.68 505.67 222.73 C 504.02 222.90 502.39 223.17 500.75 223.33 C 500.63 253.63 500.86 283.94 500.63 314.25 C 504.55 314.35 508.50 314.03 512.40 314.48 C 514.58 316.12 512.29 318.89 510.07 318.20 C 498.31 318.03 486.53 318.53 474.80 317.95 C 474.67 317.09 474.40 315.36 474.27 314.50 C 481.83 313.98 489.41 314.53 496.98 314.13 C 496.58 286.09 496.92 258.04 496.80 230.00 C 496.93 217.78 496.56 205.55 497.00 193.34 C 479.90 193.03 462.78 193.25 445.67 193.23 C 445.73 197.31 445.83 201.41 445.52 205.49 C 444.37 205.52 443.22 205.55 442.07 205.58 C 441.61 201.52 441.75 197.41 442.08 193.34 C 437.94 193.16 433.79 193.17 429.65 193.17 C 429.57 191.95 429.51 190.72 429.45 189.51 L 430.75 189.67 C 430.67 190.29 430.53 191.55 430.46 192.18 C 434.49 192.29 438.53 192.27 442.57 192.38 C 442.77 196.33 442.53 200.30 442.87 204.25 C 443.31 204.23 444.20 204.19 444.64 204.17 C 445.00 200.31 444.66 196.42 444.72 192.55 C 462.34 191.98 479.99 192.33 497.62 192.37 C 497.93 231.59 497.56 270.81 497.79 310.03 C 497.70 311.56 497.91 313.18 497.36 314.65 C 496.51 315.50 495.14 315.12 494.09 315.30 C 487.67 315.40 481.23 315.01 474.82 315.51 C 475.80 317.56 478.14 317.17 479.96 317.31 C 490.56 317.27 501.17 317.20 511.78 317.27 L 511.92 315.29 C 508.24 315.21 504.52 315.58 500.87 315.06 C 499.33 314.26 499.85 312.37 499.69 310.99 C 499.77 281.53 499.73 252.07 499.71 222.62 C 501.30 222.39 502.90 222.30 504.50 222.07 L 504.48 220.36 C 502.90 220.29 501.35 220.21 499.79 220.15 C 499.36 208.26 500.38 196.29 499.19 184.45 C 498.55 186.16 497.81 187.83 497.11 189.51 L 497.11 189.51 C 497.05 187.78 497.07 186.06 497.16 184.34 Z" />
<path fill="#050505" d=" M 19.62 185.43 C 20.62 185.36 21.63 185.30 22.63 185.23 C 22.61 186.71 22.59 188.20 22.57 189.69 C 23.32 189.66 24.83 189.61 25.58 189.59 L 25.38 190.33 L 27.61 190.34 L 27.42 189.65 C 29.80 189.72 32.19 189.72 34.58 189.65 L 34.41 190.34 L 36.50 190.35 L 36.48 189.64 C 40.18 189.76 43.89 189.76 47.60 189.65 L 47.71 191.12 C 49.26 188.17 53.17 190.88 55.74 190.47 L 55.22 189.66 C 59.99 189.76 64.77 189.76 69.54 189.66 L 70.00 191.30 L 70.46 189.69 C 72.22 189.70 73.98 189.69 75.74 189.66 L 75.24 190.35 L 77.86 190.30 L 77.17 189.65 C 83.91 189.72 90.65 189.65 97.39 189.68 C 97.43 190.39 97.51 191.83 97.55 192.55 C 91.86 192.64 86.17 192.61 80.49 192.57 L 80.58 193.59 L 79.68 193.52 C 79.67 194.29 79.66 195.81 79.66 196.58 L 80.36 196.38 C 80.24 199.80 80.24 203.22 80.36 206.63 L 79.69 206.36 C 79.69 207.46 79.69 209.67 79.70 210.77 L 80.35 210.21 C 80.24 215.06 80.23 219.91 80.35 224.76 L 79.70 224.25 C 79.70 225.34 79.69 227.52 79.68 228.61 L 80.36 228.39 C 80.22 236.12 80.24 243.86 80.34 251.60 L 78.90 251.71 L 80.27 252.79 L 80.28 254.22 L 78.87 255.29 L 80.32 255.40 C 80.29 257.51 80.29 259.62 80.34 261.74 L 79.66 261.24 L 79.69 263.85 L 80.36 263.16 C 80.23 268.28 80.24 273.41 80.34 278.53 L 78.71 279.00 L 80.33 279.46 C 80.27 281.82 80.27 284.18 80.33 286.54 L 78.68 287.00 L 80.31 287.45 C 80.30 289.20 80.31 290.95 80.34 292.70 L 79.65 292.29 L 79.70 294.85 L 80.36 294.16 C 80.26 296.95 80.25 299.74 80.33 302.53 L 78.71 303.00 L 80.34 303.47 C 80.26 306.44 80.22 309.42 80.33 312.40 C 83.46 312.49 86.60 312.51 89.73 312.47 L 89.33 313.56 L 90.34 313.46 C 90.35 314.23 90.37 315.78 90.38 316.56 L 89.45 316.47 C 89.57 317.20 89.81 318.66 89.93 319.38 C 94.77 320.03 99.69 319.53 104.57 319.65 C 104.64 320.63 104.71 321.61 104.79 322.59 C 97.36 322.66 89.92 322.55 82.49 322.47 C 82.48 320.10 82.51 317.74 82.53 315.38 C 80.48 315.33 78.44 315.29 76.39 315.33 L 76.60 314.69 C 74.80 314.71 73.01 314.71 71.23 314.70 L 71.79 315.34 C 68.68 315.25 65.57 315.25 62.46 315.34 L 62.00 313.68 L 61.54 315.34 C 58.15 315.24 54.77 315.24 51.38 315.36 L 51.62 314.69 C 50.52 314.69 48.33 314.70 47.23 314.70 L 47.78 315.34 C 42.33 315.24 36.87 315.21 31.41 315.37 L 31.61 314.65 L 29.79 314.75 L 29.16 315.36 C 26.00 315.07 22.85 314.62 19.68 314.53 C 19.73 311.51 19.75 308.48 19.66 305.47 L 21.28 305.00 L 19.66 304.53 C 19.75 301.48 19.75 298.44 19.63 295.40 L 20.35 295.63 L 20.31 293.22 L 19.63 293.74 C 19.74 290.92 19.74 288.09 19.67 285.27 L 20.34 285.65 C 20.34 284.85 20.32 283.24 20.32 282.43 L 19.65 282.60 C 19.77 277.22 19.76 271.84 19.66 266.46 L 21.30 266.00 L 19.66 265.54 C 19.75 262.51 19.75 259.49 19.66 256.47 L 21.30 256.00 L 19.67 255.54 C 19.73 253.16 19.72 250.78 19.66 248.40 L 20.32 248.56 C 20.32 247.78 20.34 246.23 20.35 245.45 L 19.66 245.62 C 19.74 242.81 19.74 240.00 19.66 237.19 L 20.29 237.80 C 20.30 236.67 20.31 234.42 20.32 233.29 L 19.66 233.72 C 19.66 232.91 19.67 231.29 19.67 230.48 L 21.28 229.99 L 19.67 229.54 C 19.74 226.84 19.74 224.15 19.67 221.46 L 21.28 221.00 L 19.66 220.53 C 19.76 213.82 19.77 207.11 19.66 200.40 L 21.05 200.33 C 19.77 199.07 19.27 197.45 19.56 195.47 L 21.29 195.01 L 19.67 194.54 C 19.75 191.50 19.68 188.47 19.62 185.43 Z" />
<path fill="#050505" d=" M 497.11 189.51 C 497.81 187.83 498.55 186.16 499.19 184.45 C 500.38 196.29 499.36 208.26 499.79 220.15 C 501.35 220.21 502.90 220.29 504.48 220.36 L 504.50 222.07 C 502.90 222.30 501.30 222.39 499.71 222.62 C 499.73 252.07 499.77 281.53 499.69 310.99 C 499.85 312.37 499.33 314.26 500.87 315.06 C 504.52 315.58 508.24 315.21 511.92 315.29 L 511.78 317.27 C 501.17 317.20 490.56 317.27 479.96 317.31 C 478.14 317.17 475.80 317.56 474.82 315.51 C 481.23 315.01 487.67 315.40 494.09 315.30 C 495.14 315.12 496.51 315.50 497.36 314.65 C 497.91 313.18 497.70 311.56 497.79 310.03 C 497.56 270.81 497.93 231.59 497.62 192.37 C 479.99 192.33 462.34 191.98 444.72 192.55 C 444.66 196.42 445.00 200.31 444.64 204.17 C 444.20 204.19 443.31 204.23 442.87 204.25 C 442.53 200.30 442.77 196.33 442.57 192.38 C 438.53 192.27 434.49 192.29 430.46 192.18 C 430.53 191.55 430.67 190.29 430.75 189.67 C 452.86 189.59 475.00 189.89 497.11 189.51 L 497.11 189.51 Z" />
<path fill="#8e8e8e" d=" M 117.60 189.49 C 120.72 189.06 123.87 189.31 127.01 189.27 C 148.02 189.28 169.03 189.28 190.04 189.27 C 193.51 189.31 197.03 189.01 200.48 189.65 C 200.52 190.35 200.62 191.73 200.67 192.43 C 197.97 193.76 194.84 193.06 191.95 193.21 C 167.16 193.22 142.37 193.11 117.59 193.27 C 117.12 191.99 116.22 190.56 117.60 189.49 Z" />
<path fill="#8e8e8e" d=" M 324.50 189.49 C 349.33 188.97 374.18 189.45 399.01 189.27 C 402.83 189.23 406.66 189.24 410.48 189.49 C 410.52 190.61 410.56 191.74 410.61 192.88 C 404.73 193.57 398.80 192.94 392.91 193.34 C 393.57 216.55 393.01 239.80 393.20 263.03 C 392.91 269.55 393.88 276.17 392.53 282.61 C 391.95 261.74 392.44 240.85 392.28 219.97 C 392.36 210.78 392.09 201.58 392.43 192.40 C 397.90 191.97 403.50 192.85 408.90 191.86 L 410.13 190.49 C 387.09 190.06 364.02 190.37 340.96 190.27 C 335.59 190.31 330.21 190.10 324.85 190.49 C 325.77 192.63 328.18 192.15 330.00 192.31 C 349.86 192.30 369.72 192.17 389.57 192.37 L 389.64 193.20 C 367.91 193.01 346.15 193.56 324.43 192.93 C 324.45 191.78 324.47 190.64 324.50 189.49 Z" />
<path fill="#050505" d=" M 220.20 192.59 C 220.28 191.60 220.35 190.63 220.43 189.65 C 248.48 189.68 276.52 189.70 304.57 189.65 C 304.64 190.63 304.71 191.60 304.79 192.58 C 299.99 192.62 295.18 192.60 290.38 192.60 C 290.28 233.95 290.32 275.29 290.36 316.64 L 289.43 316.39 C 289.56 317.14 289.80 318.64 289.93 319.38 C 295.71 320.06 301.57 319.48 307.38 319.68 C 307.43 320.40 307.51 321.84 307.55 322.55 C 294.18 322.62 280.82 322.53 267.45 322.55 C 267.49 321.83 267.57 320.39 267.61 319.68 C 271.67 319.67 275.72 319.69 279.78 319.65 C 279.75 318.27 279.71 316.90 279.67 315.53 C 282.28 315.32 284.87 314.99 287.45 314.53 C 287.31 273.90 287.47 233.28 287.37 192.65 C 264.98 192.53 242.59 192.66 220.20 192.59 Z" />
<path fill="#050505" d=" M 118.12 190.29 C 145.36 190.31 172.61 190.14 199.85 190.38 L 199.16 192.04 C 196.44 192.45 193.68 192.27 190.95 192.29 C 166.69 192.24 142.44 192.32 118.18 192.25 L 118.12 190.29 Z" />
<path fill="#050505" d=" M 324.85 190.49 C 330.21 190.10 335.59 190.31 340.96 190.27 C 364.02 190.37 387.09 190.06 410.13 190.49 L 408.90 191.86 C 403.50 192.85 397.90 191.97 392.43 192.40 C 392.09 201.58 392.36 210.78 392.28 219.97 C 392.44 240.85 391.95 261.74 392.53 282.61 C 391.82 282.55 390.38 282.42 389.67 282.36 C 389.66 252.64 389.72 222.92 389.64 193.20 L 389.57 192.37 C 369.72 192.17 349.86 192.30 330.00 192.31 C 328.18 192.15 325.77 192.63 324.85 190.49 Z" />
<path fill="#050505" d=" M 442.39 220.21 C 443.38 220.29 444.37 220.36 445.37 220.44 C 445.30 228.48 445.30 236.53 445.37 244.57 C 444.36 244.63 443.37 244.70 442.38 244.77 C 442.41 236.58 442.39 228.40 442.39 220.21 Z" />
<path fill="#050505" d=" M 442.39 260.21 C 443.38 260.29 444.37 260.36 445.37 260.44 C 445.30 271.81 445.30 283.19 445.37 294.57 C 444.37 294.63 443.37 294.70 442.38 294.77 C 442.41 283.25 442.40 271.73 442.39 260.21 Z" />
<path fill="#8e8e8e" d=" M 121.86 294.61 C 129.22 293.96 136.62 294.40 144.00 294.28 C 148.50 294.38 153.04 293.97 157.52 294.53 C 158.74 295.63 157.83 297.02 157.42 298.27 C 146.88 298.07 136.34 298.31 125.80 298.14 C 125.63 319.37 125.71 340.61 125.78 361.85 C 145.26 361.77 164.75 361.79 184.23 361.84 C 184.34 340.64 184.24 319.44 184.30 298.24 C 182.09 298.20 179.89 298.18 177.68 298.15 C 177.34 297.54 176.66 296.32 176.32 295.71 C 179.45 293.03 183.93 294.69 187.68 294.44 C 188.70 300.97 188.09 307.61 188.05 314.18 C 197.18 314.58 206.35 313.82 215.46 314.61 L 214.45 314.95 C 205.49 315.71 196.47 315.04 187.49 315.28 C 187.04 308.69 187.45 302.09 187.16 295.50 C 183.85 295.30 180.52 295.21 177.21 295.59 C 179.35 297.73 182.55 297.29 185.30 297.70 C 185.31 319.27 185.23 340.83 185.30 362.40 C 170.54 363.13 155.75 362.53 140.98 362.72 C 135.57 362.71 130.14 362.89 124.73 362.43 C 124.89 340.90 124.39 319.35 124.93 297.84 C 126.88 297.13 128.99 297.25 131.03 297.22 C 139.61 297.32 148.19 297.28 156.78 297.25 L 156.91 295.30 C 146.30 295.22 135.69 295.30 125.08 295.28 C 123.99 295.10 122.92 294.88 121.86 294.61 Z" />
<path fill="#050505" d=" M 122.47 319.32 C 122.35 311.32 122.36 303.31 122.46 295.31 C 123.12 295.30 124.42 295.28 125.08 295.28 C 135.69 295.30 146.30 295.22 156.91 295.30 L 156.78 297.25 C 148.19 297.28 139.61 297.32 131.03 297.22 C 128.99 297.25 126.88 297.13 124.93 297.84 C 124.39 319.35 124.89 340.90 124.73 362.43 C 130.14 362.89 135.57 362.71 140.98 362.72 C 155.75 362.53 170.54 363.13 185.30 362.40 C 185.23 340.83 185.31 319.27 185.30 297.70 C 182.55 297.29 179.35 297.73 177.21 295.59 C 180.52 295.21 183.85 295.30 187.16 295.50 C 187.45 302.09 187.04 308.69 187.49 315.28 C 196.47 315.04 205.49 315.71 214.45 314.95 C 214.54 315.61 214.73 316.93 214.83 317.59 C 205.76 317.63 196.68 317.56 187.61 317.63 C 187.64 332.31 187.52 347.00 187.66 361.68 L 187.76 362.60 C 207.70 362.81 227.65 362.80 247.59 362.60 C 247.88 353.06 247.66 343.51 247.71 333.97 C 247.62 328.52 248.09 323.05 247.44 317.62 C 241.53 317.53 235.62 317.74 229.72 317.47 C 229.70 317.02 229.68 316.13 229.67 315.68 C 230.19 315.42 231.23 314.91 231.75 314.65 C 237.36 314.67 242.98 314.71 248.59 314.63 L 248.60 315.61 C 249.02 315.55 249.86 315.43 250.29 315.37 C 250.28 316.80 250.29 318.23 250.30 319.67 C 250.82 319.67 251.87 319.68 252.39 319.68 C 252.43 320.40 252.51 321.83 252.55 322.55 C 252.01 322.55 250.92 322.55 250.38 322.55 C 250.24 336.57 250.38 350.59 250.31 364.62 L 248.60 364.65 C 215.39 364.85 182.18 364.64 148.97 364.73 C 140.26 364.64 131.54 364.97 122.83 364.48 C 122.54 351.27 122.86 338.06 122.70 324.86 C 122.85 323.10 121.17 322.13 120.23 320.91 C 120.79 320.51 121.91 319.72 122.47 319.32 Z" />
<path fill="#050505" d=" M 389.74 297.41 C 390.68 297.46 391.63 297.50 392.58 297.54 C 392.64 303.09 392.59 308.65 392.58 314.20 L 392.58 315.23 C 395.69 315.26 398.79 315.28 401.91 315.31 L 401.81 317.23 C 398.66 317.26 395.52 317.30 392.38 317.37 C 392.23 332.45 392.16 347.53 392.41 362.60 C 412.46 362.80 432.52 362.81 452.57 362.60 C 452.83 347.54 452.81 332.48 452.58 317.43 C 441.12 316.97 429.66 317.45 418.20 317.26 L 418.09 315.30 C 426.08 315.22 434.06 315.31 442.05 315.24 C 442.62 313.35 443.24 311.47 443.83 309.59 C 444.42 311.15 444.92 312.76 445.49 314.34 L 445.80 315.16 C 450.35 315.47 454.91 315.36 459.46 315.29 L 459.49 316.79 C 457.96 317.15 456.42 317.45 454.93 317.92 C 454.36 333.42 455.04 348.97 454.61 364.49 C 429.41 365.08 404.20 364.51 379.00 364.74 C 361.13 364.58 343.25 365.03 325.39 364.49 C 325.13 354.33 325.33 344.16 325.27 334.00 C 325.16 330.21 325.83 326.28 324.60 322.62 C 324.06 322.56 322.99 322.45 322.45 322.39 C 322.50 321.49 322.55 320.59 322.61 319.69 C 323.13 319.68 324.18 319.67 324.71 319.66 C 324.71 318.23 324.71 316.81 324.70 315.39 C 325.13 315.44 325.97 315.54 326.40 315.59 L 326.42 314.64 C 340.80 314.71 355.19 314.68 369.57 314.65 C 369.64 315.62 369.71 316.60 369.79 317.59 C 355.71 317.64 341.64 317.56 327.57 317.62 C 326.90 323.05 327.38 328.52 327.29 333.97 C 327.34 343.51 327.12 353.06 327.40 362.60 C 341.26 362.88 355.12 362.65 368.98 362.72 C 376.09 362.61 383.21 363.02 390.30 362.41 C 390.24 347.55 390.27 332.69 390.28 317.83 C 388.39 317.44 386.52 316.91 384.80 316.05 C 386.52 315.42 388.57 315.46 390.13 314.38 C 390.47 308.74 390.52 303.02 389.74 297.41 Z" />
<path fill="#8e8e8e" d=" M 389.35 314.11 C 389.48 308.55 388.73 302.92 389.74 297.41 C 390.52 303.02 390.47 308.74 390.13 314.38 C 388.57 315.46 386.52 315.42 384.80 316.05 C 386.52 316.91 388.39 317.44 390.28 317.83 C 390.27 332.69 390.24 347.55 390.30 362.41 C 383.21 363.02 376.09 362.61 368.98 362.72 C 355.12 362.65 341.26 362.88 327.40 362.60 C 327.12 353.06 327.34 343.51 327.29 333.97 C 327.38 328.52 326.90 323.05 327.57 317.62 C 328.10 320.39 328.28 323.21 328.22 326.03 C 328.11 337.94 328.32 349.85 328.09 361.76 C 348.48 361.88 368.86 361.74 389.25 361.83 C 389.34 347.33 389.22 332.84 389.31 318.34 C 387.68 318.20 386.06 318.06 384.44 317.90 C 384.46 316.79 384.48 315.67 384.51 314.56 C 386.12 314.38 387.73 314.28 389.35 314.11 Z" />
<path fill="#8e8e8e" d=" M 442.25 309.34 C 443.35 309.40 444.45 309.47 445.56 309.54 C 445.50 311.13 445.55 312.73 445.49 314.34 C 444.92 312.76 444.42 311.15 443.83 309.59 C 443.24 311.47 442.62 313.35 442.05 315.24 C 434.06 315.31 426.08 315.22 418.09 315.30 L 418.20 317.26 C 429.66 317.45 441.12 316.97 452.58 317.43 C 452.81 332.48 452.83 347.54 452.57 362.60 C 432.52 362.81 412.46 362.80 392.41 362.60 C 392.16 347.53 392.23 332.45 392.38 317.37 C 395.52 317.30 398.66 317.26 401.81 317.23 L 401.91 315.31 C 398.79 315.28 395.69 315.26 392.58 315.23 L 392.58 314.20 C 395.86 314.29 399.17 314.08 402.45 314.51 C 403.67 315.59 402.87 316.97 402.47 318.23 C 399.32 318.15 396.16 318.19 393.00 318.34 C 393.40 332.82 393.16 347.32 393.12 361.81 C 412.80 361.62 432.49 362.16 452.16 361.54 C 451.49 354.37 451.92 347.16 451.80 339.98 C 451.92 332.80 451.48 325.61 452.16 318.46 C 441.09 317.79 429.97 318.47 418.89 318.14 C 416.60 318.59 415.59 314.03 418.32 314.47 C 426.12 313.93 433.97 314.53 441.79 314.19 C 441.95 312.57 442.07 310.95 442.25 309.34 Z" />
<path fill="#8e8e8e" d=" M 445.49 314.34 C 450.49 314.27 455.49 314.23 460.49 314.48 C 460.52 315.60 460.55 316.73 460.59 317.86 C 458.96 318.03 457.33 318.19 455.71 318.35 C 455.55 334.05 456.10 349.78 455.42 365.47 C 430.31 366.08 405.18 365.53 380.06 365.73 C 361.56 365.55 343.05 366.07 324.56 365.45 C 323.98 357.62 324.40 349.77 324.28 341.94 C 324.40 335.50 323.97 329.04 324.60 322.62 C 325.83 326.28 325.16 330.21 325.27 334.00 C 325.33 344.16 325.13 354.33 325.39 364.49 C 343.25 365.03 361.13 364.58 379.00 364.74 C 404.20 364.51 429.41 365.08 454.61 364.49 C 455.04 348.97 454.36 333.42 454.93 317.92 C 456.42 317.45 457.96 317.15 459.49 316.79 L 459.46 315.29 C 454.91 315.36 450.35 315.47 445.80 315.16 L 445.49 314.34 Z" />
<path fill="#050505" d=" M 527.45 317.28 C 527.50 316.41 527.55 315.55 527.61 314.69 C 539.93 314.66 552.25 314.71 564.56 314.65 C 564.63 315.62 564.71 316.60 564.79 317.58 C 554.07 317.65 543.35 317.54 532.63 317.65 C 532.58 332.55 532.58 347.45 532.63 362.35 C 575.88 362.43 619.12 362.42 662.37 362.36 C 662.42 347.45 662.42 332.55 662.37 317.64 C 653.31 317.54 644.26 317.65 635.21 317.58 C 635.28 316.60 635.35 315.62 635.44 314.65 C 646.09 314.70 656.74 314.67 667.39 314.69 C 667.43 315.55 667.49 316.42 667.55 317.30 C 664.55 316.97 665.40 320.06 665.29 321.98 C 665.35 336.20 665.33 350.42 665.31 364.64 C 664.88 364.57 664.02 364.44 663.60 364.37 L 663.60 365.36 C 619.53 365.30 575.46 365.30 531.39 365.36 L 531.39 364.37 C 530.97 364.44 530.12 364.58 529.69 364.65 C 529.52 349.05 529.93 333.41 529.50 317.83 C 528.99 317.69 527.96 317.42 527.45 317.28 Z" />
<path fill="#050505" d=" M 580.20 317.58 C 580.27 316.60 580.35 315.63 580.43 314.65 C 593.48 314.69 606.52 314.69 619.57 314.65 C 619.63 315.62 619.71 316.60 619.80 317.58 C 606.60 317.61 593.40 317.61 580.20 317.58 Z" />
<path fill="#8e8e8e" d=" M 247.44 317.62 C 248.09 323.05 247.62 328.52 247.71 333.97 C 247.66 343.51 247.88 353.06 247.59 362.60 C 227.65 362.80 207.70 362.81 187.76 362.60 L 187.66 361.68 C 207.42 361.92 227.18 361.80 246.93 361.74 C 246.68 351.82 246.86 341.90 246.81 331.97 C 246.86 327.19 246.45 322.35 247.44 317.62 Z" />
<path fill="#8e8e8e" d=" M 119.48 319.59 C 120.23 319.53 121.73 319.39 122.47 319.32 C 121.91 319.72 120.79 320.51 120.23 320.91 C 121.17 322.13 122.85 323.10 122.70 324.86 C 122.86 338.06 122.54 351.27 122.83 364.48 C 131.54 364.97 140.26 364.64 148.97 364.73 C 182.18 364.64 215.39 364.85 248.60 364.65 C 249.08 364.82 250.05 365.15 250.54 365.32 C 243.72 366.10 236.84 365.58 230.00 365.72 C 194.11 365.60 158.22 365.93 122.33 365.56 C 121.36 360.10 121.94 354.54 121.81 349.03 C 121.92 340.59 121.54 332.14 122.04 323.70 C 121.16 323.30 120.28 322.91 119.40 322.51 C 119.43 321.54 119.46 320.56 119.48 319.59 Z" />
</svg>
